<svg width="26" height="14" viewBox="0 0 26 14" fill="none" xmlns="http://www.w3.org/2000/svg">
<path d="M25.4988 8.40107C25.3173 8.40151 25.1499 8.30364 25.0614 8.14518C23.4636 5.29216 20.4879 3.86947 18.2727 3.17849V3.17871C16.8781 2.74735 15.4397 2.47356 13.9841 2.36241L11.0308 6.47401C10.9369 6.60479 10.7856 6.68239 10.6248 6.68217H6.48527C6.32419 6.68239 6.17292 6.60479 6.07898 6.47401L4.31496 4.01946H1.47522L4.05471 7.60921V7.60943C4.21579 7.83372 4.16457 8.14607 3.94027 8.30738C3.71598 8.46846 3.40341 8.41702 3.24232 8.19273L0.0939467 3.8115C-0.0154723 3.65914 -0.0305163 3.45817 0.055148 3.29142C0.140813 3.12446 0.312572 3.0194 0.500246 3.01961H4.5715C4.73258 3.01961 4.88385 3.09721 4.97779 3.22799L6.74181 5.6821L10.3682 5.68232L13.3332 1.55744C13.43 1.42295 13.5872 1.34513 13.7528 1.34971C13.8424 1.35211 15.9768 1.41968 18.5458 2.21724C20.0627 2.68784 21.4147 3.31712 22.5652 4.08722C24.0194 5.05915 25.1531 6.26059 25.9363 7.65778C26.0231 7.81275 26.0211 8.00217 25.9311 8.15541C25.841 8.30864 25.6765 8.40259 25.4988 8.40215L25.4988 8.40107Z" fill="white"/>
<path d="M18.2476 5.37501C18.1963 5.37501 18.1456 5.36716 18.0969 5.35146C16.9833 5.00424 15.8388 4.76534 14.6794 4.63806C14.5471 4.62411 14.4259 4.55806 14.3426 4.45474C14.2591 4.3512 14.2203 4.21868 14.235 4.08659C14.2493 3.95449 14.3158 3.83352 14.4196 3.75048C14.5233 3.66743 14.6561 3.62928 14.7879 3.64411C16.0127 3.7786 17.2216 4.03101 18.3977 4.39786C18.6338 4.47175 18.7803 4.70673 18.7428 4.95107C18.7051 5.19542 18.4947 5.37546 18.2476 5.37503L18.2476 5.37501Z" fill="white"/>
<path d="M13.7391 13.4226C13.463 13.4256 13.2367 13.2044 13.2334 12.9282C13.2304 12.652 13.4516 12.4258 13.7278 12.4225C13.7539 12.4225 16.401 12.3495 19.2366 11.4628C21.9736 10.6077 23.9414 9.31404 25.0845 7.62127C25.239 7.3924 25.5498 7.33224 25.7787 7.48678C26.0075 7.64132 26.0677 7.95215 25.9132 8.181C24.6398 10.0676 22.4937 11.4933 19.5346 12.4177C16.5596 13.3476 13.8642 13.4197 13.7498 13.4226L13.7391 13.4226Z" fill="white"/>
<path d="M13.7389 13.4226H3.83874C3.65499 13.4226 3.48629 13.3219 3.3991 13.1603L0.684518 8.13875C0.600817 7.98378 0.604957 7.7961 0.695198 7.64483C0.785657 7.49356 0.948918 7.40113 1.12504 7.40135H25.4987C25.7748 7.40135 25.9987 7.62521 25.9987 7.90137C25.9987 8.17732 25.7748 8.40118 25.4987 8.40118H1.96316L4.13675 12.4225H13.7389C14.0151 12.4225 14.2389 12.6463 14.2389 12.9225C14.2389 13.1987 14.0151 13.4225 13.7389 13.4225L13.7389 13.4226Z" fill="white"/>
<path d="M19.3861 12.4388C19.1476 12.4388 18.9425 12.2703 18.8959 12.0364C18.8494 11.8023 18.9745 11.5682 19.1949 11.4769C19.4153 11.3856 19.6694 11.4627 19.802 11.6609C19.9345 11.8592 19.9086 12.1236 19.7398 12.2923C19.6461 12.386 19.5188 12.4388 19.3861 12.4388H19.3861Z" fill="white"/>
<path d="M13.4087 2.80819C13.2426 2.80863 13.0872 2.72667 12.9939 2.58935L11.9333 1.01907H8.49807C8.2219 1.01907 7.99805 0.795215 7.99805 0.519266C7.99805 0.243098 8.2219 0.0192431 8.49807 0.0192431H12.199C12.3649 0.0188072 12.52 0.100762 12.6133 0.237869L13.8226 2.02806C13.9268 2.18151 13.938 2.37986 13.851 2.54356C13.7642 2.70726 13.594 2.8097 13.4087 2.80926L13.4087 2.80819Z" fill="white"/>
<path d="M12.1223 4.59883C11.9508 4.59905 11.791 4.51143 11.6992 4.36647L9.43146 0.785649C9.35365 0.67383 9.32465 0.534982 9.35168 0.401368C9.37849 0.267536 9.45892 0.150701 9.57401 0.0776809C9.6891 0.00466047 9.82926 -0.0180064 9.96156 0.0144695C10.0939 0.0471652 10.2072 0.13261 10.2752 0.250751L12.5432 3.83158V3.83136C12.6407 3.98546 12.6468 4.18011 12.5589 4.33967C12.4713 4.49944 12.3035 4.59861 12.1215 4.59883H12.1223Z" fill="white"/>
</svg>
