<svg width="26" height="18" viewBox="0 0 26 18" fill="none" xmlns="http://www.w3.org/2000/svg">
<path d="M2.53663 0C1.14236 0 0 1.15805 0 2.57147V15.4285C0 16.8419 1.14236 18 2.53663 18H23.4634C24.8576 18 26 16.8419 26 15.4285V2.57147C26 1.15805 24.8576 0 23.4634 0H2.53663ZM2.53663 1.28559H23.4634C23.6465 1.28559 23.813 1.32864 23.9688 1.39613L13.7924 10.6067C13.3118 11.0419 12.7085 11.0419 12.227 10.6067L2.03089 1.39613C2.18637 1.32886 2.35292 1.28559 2.53627 1.28559H2.53663ZM1.27814 2.44072L8.57079 9.02996L1.40723 16.0107C1.32341 15.8376 1.26856 15.6378 1.26856 15.428V2.5709C1.26856 2.52583 1.27431 2.4839 1.27829 2.44041L1.27814 2.44072ZM24.7216 2.44072C24.7258 2.48444 24.7314 2.52637 24.7314 2.57121V15.4283C24.7314 15.6381 24.6765 15.8379 24.5927 16.0107L17.4484 9.01971L24.7212 2.4408L24.7216 2.44072ZM16.4976 9.88404L23.493 16.7144C23.4828 16.7146 23.4733 16.7144 23.4631 16.7144H2.53639C2.52621 16.7144 2.5167 16.7146 2.50653 16.7144L9.52174 9.89437L11.3844 11.5719C12.3123 12.4105 13.707 12.4116 14.6343 11.5719L16.497 9.88455L16.4976 9.88404Z" fill="white"/>
</svg>
