<svg width="26" height="15" viewBox="0 0 26 15" fill="none" xmlns="http://www.w3.org/2000/svg">
<path d="M24.7026 10.5648H25.1331C25.6117 10.5648 25.9998 11.0434 25.9998 11.4316C25.9998 11.9101 25.6117 12.2983 25.1331 12.2983H24.7026C24.2241 12.2983 23.8359 11.8197 23.8359 11.4316C23.8359 10.953 24.224 10.5648 24.7026 10.5648Z" fill="white"/>
<path d="M19.5024 10.5649H0.866703C0.636781 10.5649 0.416325 10.6561 0.253905 10.8188C0.0912878 10.9812 0 11.2016 0 11.4316C0 11.6615 0.0912826 11.8819 0.253905 12.0444C0.41632 12.207 0.636776 12.2983 0.866703 12.2983H19.5024C19.7323 12.2983 19.9528 12.3895 20.1152 12.552C20.2778 12.7146 20.3691 12.935 20.3691 13.165V13.3296C20.3691 13.5593 20.4604 13.7798 20.623 13.9424C20.7854 14.1048 21.0059 14.1963 21.2358 14.1963C21.4657 14.1963 21.6862 14.1048 21.8486 13.9424C22.0112 13.7798 22.1025 13.5593 22.1025 13.3296V9.53354C22.1025 9.30382 22.0112 9.08337 21.8486 8.92074C21.6862 8.75833 21.4657 8.66684 21.2358 8.66684C21.0059 8.66684 20.7854 8.75832 20.623 8.92074C20.4604 9.08336 20.3691 9.30382 20.3691 9.53354V9.69818C20.3691 9.9281 20.2778 10.1486 20.1152 10.3112C19.9528 10.4736 19.7323 10.5649 19.5024 10.5649V10.5649Z" fill="white"/>
<path d="M16.0361 1.89828H25.1329C25.6115 1.89828 25.9997 2.37687 25.9997 2.76499C25.9997 3.24358 25.6115 3.6317 25.1329 3.6317H16.0361C15.5576 3.6317 15.1694 3.15312 15.1694 2.76499C15.1694 2.28641 15.5575 1.89828 16.0361 1.89828Z" fill="white"/>
<path d="M12.5697 5.52947C12.7997 5.52947 13.0201 5.43798 13.1825 5.27556C13.3451 5.11294 13.4364 4.89249 13.4364 4.66276V0.866703C13.4364 0.636982 13.3452 0.416526 13.1825 0.253904C13.0201 0.0914885 12.7997 0 12.5697 0C12.3398 0 12.1194 0.0914834 11.9569 0.253904C11.7943 0.416521 11.703 0.636977 11.703 0.866703V1.03134C11.703 1.26126 11.6117 1.48171 11.4491 1.64434C11.2867 1.80676 11.0663 1.89805 10.8363 1.89805H0.867191C0.637269 1.89805 0.416814 1.98933 0.254393 2.15195C0.091776 2.31437 0.000488281 2.53482 0.000488281 2.76475C0.000488281 2.99468 0.0917709 3.21513 0.254393 3.37755C0.416808 3.54016 0.637264 3.63145 0.867191 3.63145H10.8363C11.0662 3.63145 11.2867 3.72273 11.4491 3.88516C11.6117 4.04777 11.703 4.26823 11.703 4.49816V4.66279C11.703 4.89252 11.7943 5.11297 11.9569 5.27559C12.1193 5.43801 12.3398 5.5295 12.5697 5.5295V5.52947Z" fill="white"/>
</svg>
