<svg width="26" height="12" viewBox="0 0 26 12" fill="none" xmlns="http://www.w3.org/2000/svg">
<path d="M20.2319 11.8521H23.3183C24.031 11.8521 24.7075 11.5682 25.2148 11.0669C25.7161 10.5656 26 9.88307 26 9.17036V3.00969C26 2.29698 25.7161 1.62051 25.2148 1.11316C24.7135 0.611854 24.031 0.32798 23.3183 0.32798H8.60515C7.89245 0.32798 7.21598 0.611854 6.70863 1.11316C6.20732 1.61447 5.92345 2.29698 5.92345 3.00969V6.12022H5.30134L3.30214 1.08296C3.0847 0.533335 2.59547 0.134703 2.0096 0.0259857C1.42374 -0.0766923 0.825788 0.128664 0.433196 0.575615C0.0406042 1.01653 -0.0983129 1.63863 0.0708036 2.20638L1.55057 7.14096C1.18214 7.64227 1.01906 8.25834 1.07946 8.86837C1.13986 9.48444 1.42978 10.0522 1.88881 10.4689C2.34784 10.8857 2.94579 11.1152 3.56185 11.1092H6.75091C7.24618 11.5863 7.91057 11.846 8.59307 11.846H10.6044H11.6794H19.1629M24.943 3.01573V6.12022H15.5691C14.7296 6.12022 13.9082 5.86051 13.2136 5.37732C12.525 4.89413 11.9935 4.21162 11.7036 3.42644L10.9607 1.391H23.3183C23.7471 1.391 24.1639 1.56011 24.4659 1.86815C24.7739 2.17014 24.943 2.58085 24.943 3.01573ZM1.18818 1.31852C1.3271 1.12524 1.56265 1.02861 1.79821 1.0588C2.03376 1.089 2.23308 1.24604 2.31764 1.46348L4.1598 6.11418H3.56789C3.1753 6.11418 2.78271 6.21082 2.4324 6.38598L1.0855 1.89231C1.0251 1.69903 1.06134 1.48764 1.18818 1.31852ZM2.1304 8.61469C2.1304 8.23418 2.2814 7.86575 2.55319 7.59395C2.82499 7.32216 3.18738 7.17116 3.57393 7.17116H5.92949V9.17036C5.92949 9.47235 5.9778 9.76831 6.08048 10.0522H3.57393C3.19342 10.0522 2.82499 9.90119 2.55319 9.62939C2.2814 9.36364 2.1304 8.9952 2.1304 8.61469ZM6.98042 9.17036V3.00969C6.98042 2.58085 7.14954 2.1641 7.45757 1.86211C7.75957 1.56011 8.17632 1.38496 8.60515 1.38496H9.83729L10.7191 3.78279C11.0875 4.77333 11.7459 5.63099 12.6156 6.24102C13.4854 6.84501 14.5182 7.17116 15.5752 7.1772H24.9491V9.1764C24.9491 9.60523 24.7799 10.022 24.4719 10.324C24.1699 10.626 23.7532 10.8011 23.3243 10.8011H8.60515C8.17632 10.8011 7.75957 10.632 7.45757 10.324C7.14954 10.0159 6.98042 9.60523 6.98042 9.17036Z" fill="white"/>
</svg>
