<svg width="26" height="15" viewBox="0 0 26 15" fill="none" xmlns="http://www.w3.org/2000/svg">
<path fill-rule="evenodd" clip-rule="evenodd" d="M24.3418 11.129H25.5273C25.7883 11.129 26 11.3457 26 11.6128C26 11.8801 25.7883 12.0968 25.5273 12.0968H23.1723H23.1558H19.8071C19.8383 12.2531 19.8545 12.4149 19.8545 12.5806C19.8545 13.9167 18.7963 15 17.4908 15C16.1855 15 15.1273 13.9167 15.1273 12.5806C15.1273 12.4149 15.1435 12.2531 15.1745 12.0968H8.98437H8.97898H3.309C3.18365 12.0968 3.06334 12.0458 2.97471 11.9549L1.90671 10.6451H0.472683C0.211693 10.6451 0 10.4286 0 10.1613C0 9.89397 0.211716 9.67745 0.472683 9.67745H2.10238C2.22774 9.67745 2.13635 9.72842 2.22497 9.81913L3.50467 11.129H7.71443L1.58091 5.6881C1.25028 5.39476 1.45294 4.83857 1.89048 4.83857H6.90792L11.9726 0.125816C12.0597 0.0449102 12.173 0 12.2907 0H20.7999C20.979 0 21.1427 0.103539 21.2228 0.267495L23.4557 4.83882H25.5273C25.7883 4.83882 26 5.05552 26 5.32282C26 7.52906 25.5327 9.25111 24.7462 10.5388C24.6113 10.7598 24.4755 10.9561 24.3418 11.129ZM22.3987 4.83861L20.5077 0.967675H12.4737L8.3137 4.83861H22.3987ZM9.1578 11.129H15.5997C16.0308 10.5414 16.7175 10.1613 17.4907 10.1613C18.2642 10.1613 18.9506 10.5414 19.3819 11.129H23.0152C23.0666 11.088 23.1326 11.031 23.2104 10.9568C23.4578 10.7203 23.7084 10.4126 23.9446 10.0259C24.5794 8.986 24.9848 7.5979 25.0464 5.80655H3.15813L9.1578 11.129ZM17.4905 14.0322C18.2738 14.0322 18.9088 13.3823 18.9088 12.5807C18.9088 11.7789 18.2738 11.129 17.4905 11.129C16.7074 11.129 16.0724 11.7789 16.0724 12.5807C16.0724 13.3823 16.7074 14.0322 17.4905 14.0322Z" fill="white"/>
</svg>
