<svg width="25" height="25" viewBox="0 0 25 25" fill="none" xmlns="http://www.w3.org/2000/svg">
<path d="M22.2699 2.75136C20.4941 0.976116 18.1563 0 15.6703 0C13.1842 0 10.8166 0.976328 9.04115 2.75136C7.26537 4.52661 6.28896 6.86377 6.28896 9.34897C6.28896 11.5974 7.08807 13.7276 8.53809 15.414L0.222023 23.7572C-0.0740076 24.0531 -0.0740076 24.5264 0.222023 24.7928C0.370038 24.9408 0.547574 25 0.754619 25C0.961882 25 1.13941 24.9408 1.28722 24.7928L9.60329 16.4792C11.2903 17.929 13.4209 18.7277 15.6702 18.7277C18.1561 18.7277 20.5237 17.7514 22.2698 15.9763C25.91 12.3371 25.91 6.38987 22.2699 2.75136ZM21.234 14.9407C19.7543 16.4199 17.7714 17.2483 15.6702 17.2483C13.569 17.2483 11.5861 16.4199 10.1064 14.9407C8.62677 13.4614 7.79807 11.4791 7.79807 9.37856C7.79807 7.27797 8.62672 5.29568 10.1064 3.81645C11.5862 2.33722 13.569 1.50876 15.6702 1.50876C17.7714 1.50876 19.7543 2.33716 21.234 3.81645C24.2822 6.86377 24.2822 11.8638 21.234 14.9407Z" fill="white"/>
</svg>
