<svg width="23" height="23" viewBox="0 0 23 23" fill="none" xmlns="http://www.w3.org/2000/svg">
<path fill-rule="evenodd" clip-rule="evenodd" d="M11.8157 6.95208e-05C5.63384 6.95208e-05 0.631348 4.99956 0.631348 11.1844C0.631348 13.5169 1.34265 15.6742 2.60613 17.528C2.70131 17.6692 2.72706 17.8461 2.67595 18.0086L1.54004 21.8095L5.26238 20.525V20.5251C5.42348 20.4713 5.60038 20.4939 5.74295 20.5862C7.48641 21.7174 9.57373 22.3686 11.8154 22.3686C18.0003 22.3686 22.9998 17.3692 22.9998 11.1843C22.9998 4.99949 18.0003 0 11.8154 0L11.8157 6.95208e-05ZM7.23714 4.87564L9.27294 8.23967L8.42527 9.07854L8.42547 9.07874C8.24798 9.25759 8.21229 9.53318 8.33809 9.75145C9.63158 11.9913 11.164 13.7338 13.3098 14.6795C13.5203 14.7731 13.7664 14.7281 13.9303 14.566L14.8301 13.6661L18.1156 15.7195C17.7518 16.5382 17.2775 17.0256 16.7351 17.3096C16.1067 17.6387 15.3392 17.7009 14.4633 17.5193C12.7115 17.1561 10.5955 15.7793 8.87114 14.0154C7.14681 12.2517 5.81233 10.1068 5.47221 8.36183C5.30214 7.48941 5.37723 6.73811 5.69943 6.1425C5.97678 5.62956 6.44798 5.19053 7.23732 4.87552L7.23714 4.87564Z" fill="white"/>
</svg>
