<svg width="26" height="20" viewBox="0 0 26 20" fill="none" xmlns="http://www.w3.org/2000/svg">
<path d="M19.0769 0.000774688C18.9854 0.00859563 18.897 0.0377659 18.8187 0.0859594L13.7111 3.06872H13.7113C13.6923 3.07717 13.6738 3.08668 13.6558 3.09725C13.4083 3.27671 13.3364 3.61725 13.4899 3.88313L14.928 6.40193L16.5784 12.2445C16.6194 12.3815 16.7076 12.4992 16.8274 12.5759L25.0785 18.0868L25.0783 18.0866C25.2644 18.2098 25.503 18.217 25.6957 18.105C25.8884 17.9929 26.0026 17.7809 25.991 17.5564L25.401 7.56665C25.3921 7.42439 25.3334 7.29017 25.2351 7.18786L21.0586 2.82246L19.6203 0.303671L19.6205 0.303882C19.5106 0.106668 19.3 -0.0106493 19.0766 0.000763128L19.0769 0.000774688ZM18.8925 1.41172L19.7776 2.96448L15.6935 5.35076L14.8085 3.79777L18.8927 1.4115L18.8925 1.41172ZM20.4781 3.93051L24.2305 7.86024L24.6729 15.1135L21.4923 9.54586C21.4097 9.39599 21.2673 9.28925 21.1014 9.25289C20.9355 9.21674 20.7621 9.25437 20.6257 9.35646C20.3813 9.53867 20.3135 9.87878 20.4689 10.1423L23.6495 15.71L17.657 11.7046L16.1728 6.4493L20.4782 3.93051H20.4781ZM0.564528 18.7872C0.407895 18.7944 0.260131 18.8652 0.154406 18.9844C0.0486811 19.1034 -0.00675884 19.2607 0.000659169 19.4218C0.00787247 19.5828 0.0773245 19.7342 0.193559 19.8426C0.309794 19.9508 0.46313 20.0073 0.619757 19.9992H25.4015C25.5596 20.0016 25.7117 19.9388 25.8242 19.8249C25.9367 19.7109 26 19.5556 26 19.3932C26 19.2311 25.9367 19.0755 25.8242 18.9618C25.7117 18.8479 25.5596 18.7849 25.4015 18.7872H0.619757C0.601415 18.7863 0.583073 18.7863 0.564523 18.7872L0.564528 18.7872Z" fill="white"/>
</svg>
