<svg width="28" height="26" viewBox="0 0 28 26" fill="none" xmlns="http://www.w3.org/2000/svg">
<path d="M17.5748 9.50632L17.575 9.50637C17.7966 9.55785 18.0302 9.45864 18.1521 9.25586C18.1521 9.25585 18.1521 9.25585 18.1521 9.25584L18.849 8.0959C15.6064 6.90674 12.3292 6.91518 9.08808 8.11916L9.58796 9.19645L17.5748 9.50632ZM17.5748 9.50632C15.2047 8.96107 12.7204 8.95889 10.1899 9.49877L10.1898 9.49878M17.5748 9.50632L10.1898 9.49878M10.1898 9.49878C9.94411 9.55132 9.69548 9.42764 9.58799 9.19652L10.1898 9.49878ZM10.418 10.5692L10.4178 10.5692C9.66628 10.7276 8.91792 10.3536 8.59487 9.65713L8.1366 8.66933C7.79001 8.90695 7.56078 9.32876 7.56078 9.81019C7.56078 10.4475 7.95675 10.9843 8.51127 11.126C8.51127 11.126 8.51127 11.126 8.51128 11.126L8.48651 11.2229L10.418 10.5692ZM10.418 10.5692C12.7924 10.0619 15.1178 10.0639 17.3285 10.5729L17.3287 10.573C17.4503 10.6008 17.5726 10.6146 17.6937 10.6146C18.2567 10.6146 18.789 10.3202 19.0898 9.81948L19.8008 8.63593C20.1801 8.86469 20.4366 9.30305 20.4366 9.81041C20.4366 10.4454 20.0408 10.9808 19.4861 11.1225L19.4861 11.1225C19.2802 11.1752 19.1238 11.3422 19.0843 11.5507L19.0843 11.5507C18.838 12.8517 18.2506 13.9982 17.3877 14.868L10.418 10.5692ZM24.0551 20.6222L24.0538 20.6215L18.3242 17.6365V15.467C19.1862 14.5373 19.7947 13.373 20.0948 12.068C20.9581 11.6957 21.5316 10.8119 21.5316 9.81032C21.5316 8.8445 20.9937 8.00721 20.2013 7.61321V5.45219C20.2013 2.94207 18.1594 0.9 15.6493 0.9H12.3504C9.84048 0.9 7.79842 2.94185 7.79842 5.45219V7.61252C7.00554 8.00597 6.46721 8.84371 6.46721 9.81032C6.46721 10.8136 7.04073 11.6987 7.90411 12.0714C8.20023 13.3547 8.82078 14.5397 9.67467 15.463V17.6418L4.04257 20.6418C4.04236 20.6419 4.04215 20.642 4.04193 20.6422C2.10396 21.6379 0.9 23.608 0.9 25.7834V25.8835L1.00005 25.8834L1.89404 25.883L1.99399 25.883V25.783C1.99399 24.0193 2.9702 22.4225 4.54816 21.6118L4.54946 21.6111L10.2026 18.6003L13.5435 23.5714C13.5435 23.5714 13.5435 23.5714 13.5435 23.5714C13.6451 23.7226 13.8155 23.8135 13.9977 23.8135C14.1798 23.8135 14.3498 23.723 14.4517 23.5718L14.4518 23.5717L17.7991 18.5965L23.5421 21.5885C23.5423 21.5886 23.5425 21.5887 23.5427 21.5888C25.0618 22.4084 26.0056 23.9891 26.0056 25.7143L26.0055 25.7831L26.0055 25.8831H26.1055H26.9998H27.0997L27.0998 25.7831L27.0998 25.7141C27.0998 23.5858 25.9348 21.6357 24.0551 20.6222ZM8.89268 5.45206C8.89268 5.45205 8.89268 5.45205 8.89268 5.45205C8.89268 3.54539 10.4438 1.99401 12.3505 1.99401H15.6494C17.556 1.99401 19.1072 3.54535 19.1072 5.45206V7.02154C15.715 5.80557 12.2845 5.80557 8.89287 7.02154L8.89268 5.45206ZM10.768 17.4814V16.4148C11.7366 17.0757 12.8506 17.4314 13.9965 17.4314C15.1437 17.4314 16.2589 17.0762 17.2289 16.4163V17.4812L13.9966 22.2855L10.768 17.4814Z" fill="white" stroke="white" stroke-width="0.2"/>
</svg>
