<svg width="26" height="17" viewBox="0 0 26 17" fill="none" xmlns="http://www.w3.org/2000/svg">
<path d="M24.2273 0H1.7727C1.30262 0 0.851708 0.190655 0.519352 0.530164C0.186772 0.869466 0 1.32975 0 1.80961V15.1904C0 15.6703 0.186767 16.1306 0.519352 16.4698C0.851734 16.8093 1.30263 17 1.7727 17H24.2273C24.6974 17 25.1483 16.8093 25.4807 16.4698C25.8132 16.1305 26 15.6702 26 15.1904V1.80961C26 1.32974 25.8132 0.86944 25.4807 0.530164C25.1483 0.19066 24.6974 0 24.2273 0ZM24.2273 15.7932H17.1365V9.65143H15.9545V15.7932H1.77291C1.44666 15.7932 1.18214 15.5232 1.18214 15.1902V6.63538H9.40749V5.42883H1.18214V1.80961C1.18214 1.47657 1.44666 1.20654 1.77291 1.20654H15.9545V2.41288H17.1363L17.1365 1.20654H24.2273C24.384 1.20654 24.5342 1.26996 24.6451 1.38306C24.7559 1.49637 24.8181 1.64966 24.8181 1.80962V5.42884H23.6363V6.63518H24.8181V15.19C24.8181 15.3499 24.7559 15.5032 24.6451 15.6165C24.5342 15.7296 24.384 15.7932 24.2273 15.7932ZM20.0201 3.49875L17.1365 4.10203V3.01626H15.9545V4.08993L13.0709 3.48665C12.3723 3.3469 11.6484 3.51412 11.0768 3.94734C10.5055 4.38056 10.139 5.03957 10.0682 5.76279C9.99718 6.48581 10.2279 7.20583 10.7039 7.74628C11.1799 8.28674 11.857 8.59737 12.5688 8.60181C12.7371 8.6008 12.9053 8.58465 13.0709 8.55354L15.9545 7.95027V9.04814H17.1363L17.1365 7.97447L20.0201 8.57774C20.1857 8.60864 20.3539 8.6248 20.5223 8.62601C21.2341 8.62136 21.9111 8.31074 22.3871 7.77048C22.8632 7.23003 23.0938 6.5098 23.0228 5.78678C22.952 5.06377 22.5856 4.40476 22.0142 3.97154C21.4426 3.53832 20.7187 3.37111 20.0201 3.51085L20.0201 3.49875ZM12.8407 7.38337C12.4428 7.46355 12.0307 7.35731 11.7179 7.09395C11.4071 6.8326 11.227 6.44321 11.227 6.03222C11.227 5.62124 11.4071 5.23186 11.7179 4.9705C11.9593 4.76772 12.2622 4.65685 12.5748 4.65685C12.6632 4.65099 12.752 4.65099 12.8407 4.65685L15.9545 5.32051V6.74416L12.8407 7.38337ZM21.3729 7.09375C21.0605 7.35772 20.6481 7.46436 20.2502 7.38337L17.1363 6.74395V5.32051L20.2504 4.6811C20.6482 4.60011 21.0605 4.70655 21.3729 4.97052C21.6838 5.23186 21.8638 5.62126 21.8638 6.03224C21.8638 6.44323 21.6838 6.83239 21.3729 7.09375Z" fill="white"/>
</svg>
