<svg width="26" height="25" viewBox="0 0 26 25" fill="none" xmlns="http://www.w3.org/2000/svg">
<path d="M12.2674 21.6127L12.5541 21.8469C12.6541 21.9286 12.7976 21.9286 12.8977 21.8469L13.1844 21.6127C13.4942 21.3598 20.7694 15.3321 20.7694 7.93754C20.7413 5.82265 19.8815 3.80404 18.376 2.31838C16.8705 0.832862 14.8407 0 12.7258 0C10.6108 0 8.58089 0.832862 7.0755 2.31838C5.57001 3.80409 4.71022 5.8227 4.68213 7.93754C4.68213 15.3321 11.9576 21.3599 12.2672 21.6127H12.2674ZM12.7259 1.4494C14.4601 1.43744 16.1281 2.11387 17.3642 3.32999C18.6005 4.54631 19.3036 6.20328 19.3198 7.93734C19.3198 13.4175 14.6502 18.2911 12.9099 19.9163C12.8066 20.0139 12.6452 20.0139 12.542 19.9163C10.8016 18.2907 6.13208 13.417 6.13208 7.93734C6.14821 6.20328 6.85141 4.54636 8.08765 3.32999C9.32375 2.11387 10.9917 1.43745 12.726 1.4494H12.7259Z" fill="white"/>
<path d="M16.7122 7.93753C16.7122 6.88009 16.2921 5.86614 15.5445 5.11852C14.7969 4.37091 13.7827 3.95081 12.7255 3.95081C11.6682 3.95081 10.6541 4.37093 9.90649 5.11852C9.15887 5.86614 8.73877 6.88009 8.73877 7.93753C8.73877 8.99478 9.15889 10.0087 9.90649 10.7565C10.6541 11.5042 11.6682 11.9241 12.7255 11.9241C13.7824 11.9229 14.7958 11.5024 15.5432 10.7552C16.2906 10.0078 16.7109 8.99439 16.7123 7.93748L16.7122 7.93753ZM10.1886 7.93753C10.1886 7.26471 10.4557 6.61925 10.9317 6.1435C11.4074 5.66775 12.0527 5.40045 12.7255 5.40045C13.3983 5.40045 14.0436 5.66775 14.5193 6.1435C14.9953 6.61925 15.2624 7.26471 15.2624 7.93753C15.2624 8.61035 14.9953 9.25562 14.5193 9.73137C14.0436 10.2071 13.3983 10.4744 12.7255 10.4744C12.0529 10.4737 11.408 10.2062 10.9324 9.73059C10.4568 9.25484 10.1893 8.61011 10.1886 7.93748L10.1886 7.93753Z" fill="white"/>
<path d="M24.9845 22.9728L1.01541 22.9765C0.454511 22.9766 5.78481e-05 23.3517 0.000129228 23.8144C0.000200608 24.2772 0.454798 24.6523 1.01566 24.6522L24.9848 24.6485C25.5457 24.6485 26.0001 24.2731 26.0001 23.8104C26 23.3477 25.5454 22.9727 24.9845 22.9728Z" fill="white"/>
</svg>
