<svg width="28" height="16" viewBox="0 0 28 16" fill="none" xmlns="http://www.w3.org/2000/svg">
<path d="M19.8001 6.7C18.6001 6.3 17.4001 6.1 16.2001 5.9C16.1001 5.9 15.9001 5.9 15.8001 6C15.7001 6.1 15.6001 6.2 15.6001 6.3C15.6001 6.4 15.6001 6.6 15.7001 6.7C15.8001 6.8 15.9001 6.9 16.0001 6.9C17.2001 7.1 18.4001 7.3 19.5001 7.7C19.5001 7.7 19.6001 7.7 19.7001 7.7C19.9001 7.7 20.2001 7.5 20.2001 7.3C20.2001 7 20.0001 6.8 19.8001 6.7Z" fill="white"/>
<path d="M27.4 10.1C27.4 10 27.4 10 27.4 10C26.5 8.5 25.4 7.3 24 6.4C22.8 5.6 21.5 5 20 4.5C17.4 3.7 15.3 3.6 15.2 3.6C15 3.6 14.9 3.7 14.8 3.8L10.6 9.7H9.8H8.8H5.8L5 2.7C5 2.6 4.9 2.5 4.8 2.4C4.8 2.3 4.6 2.3 4.5 2.3L2.4 2.5C2.2 2.5 2 2.7 2 3C2 3 2 3.2 2 3.3C2 3.5 2.1 3.7 2.1 3.8H1.6L1.2 0.4C1.2 0.2 1 0 0.7 0C0.5 0.2 0.4 0.4 0.4 0.6L0.8 4H0.4C0.2 4 0 4.2 0 4.5C0 4.7 0.2 4.9 0.4 4.9H0.8L1.2 8.3C1.2 8.5 1.4 8.7 1.6 8.7C1.8 8.7 2 8.5 2 8.2L1.7 4.8L2.2 4.7C2.6 7.5 2.5 8.9 2.4 9.7C2.3 9.7 2.1 9.8 2.1 9.9C2 10.1 2 10.3 2.1 10.4L4.8 15.4C4.9 15.6 5.1 15.7 5.2 15.7H15.1C15.2 15.7 17.9 15.6 20.9 14.7C23.9 13.8 26 12.3 27.3 10.5C27.4 10.2 27.4 10.2 27.4 10.1C27.4 10.2 27.4 10.2 27.4 10.1ZM15.4 4.7C16.9 4.8 18.3 5.1 19.7 5.5C21.7 6.1 24.3 7.4 26 9.7H11.8L15.4 4.7ZM2.9 3.4L4.2 3.3L4.9 9.8H3.3C3.5 8.6 3.4 6.7 2.9 3.4ZM20.6 13.8C17.9 14.7 15.3 14.8 15.1 14.8H5.5L3.4 10.7H10H11.1H25.9C24.7 12 22.9 13 20.6 13.8Z" fill="white"/>
</svg>
