<svg width="26" height="26" viewBox="0 0 26 26" fill="none" xmlns="http://www.w3.org/2000/svg">
<path d="M25.4401 12.4406H22.0072C21.88 10.3724 21.0535 8.49162 19.7616 7.03013L22.1926 4.59913C22.4113 4.38052 22.4113 4.02625 22.1926 3.80785C21.9744 3.58924 21.6196 3.58924 21.4014 3.80785L18.9703 6.23885C17.5086 4.94695 15.6276 4.12034 13.5594 3.99327V0.559582C13.5594 0.250605 13.3086 0 12.9998 0C12.6908 0 12.4402 0.25081 12.4402 0.559582V3.99287C10.3724 4.12014 8.49125 4.94655 7.02975 6.23845L4.59874 3.80745C4.38053 3.58884 4.02567 3.58884 3.80746 3.80745C3.58885 4.02605 3.58885 4.38032 3.80746 4.59873L6.23847 7.02973C4.94657 8.49147 4.12011 10.3726 3.99289 12.4407H0.559584C0.250606 12.4407 0 12.6915 0 13.0003C0 13.3092 0.250811 13.5598 0.559584 13.5598H3.99289C4.12015 15.6276 4.94657 17.5088 6.23847 18.9703L3.80746 21.4013C3.58885 21.6199 3.58885 21.9741 3.80746 22.1926C3.91657 22.3021 4.05984 22.3565 4.2031 22.3565C4.34637 22.3565 4.48963 22.3019 4.59874 22.1926L7.02975 19.7616C8.4911 21.0535 10.3723 21.8801 12.4402 22.0071V25.4404C12.4402 25.7494 12.691 26 12.9998 26C13.3088 26 13.5594 25.7492 13.5594 25.4404V22.0071C15.6276 21.8799 17.5084 21.0535 18.9698 19.7616L21.4009 22.1926C21.51 22.3021 21.6532 22.3565 21.7965 22.3565C21.9398 22.3565 22.083 22.3019 22.1921 22.1926C22.4107 21.9739 22.4107 21.6197 22.1921 21.4013L19.7611 18.9703C21.053 17.5089 21.8796 15.6279 22.0071 13.5598H25.4404C25.7494 13.5598 26 13.309 26 13.0003C26 12.6913 25.7494 12.4407 25.44 12.4407L25.4401 12.4406ZM14.963 12.4406C14.9196 12.2883 14.8597 12.1431 14.7838 12.0076L18.7092 8.08228C18.8423 8.07721 18.9744 8.03856 19.0908 7.96419C20.0751 9.15246 20.7178 10.6327 20.8704 12.2536C20.7344 12.283 20.613 12.3496 20.5142 12.4408H14.9629L14.963 12.4406ZM12.0762 13.0001C12.0762 12.4909 12.4906 12.0766 12.9998 12.0766C13.509 12.0766 13.9234 12.4909 13.9234 13.0001C13.9234 13.5094 13.509 13.9235 12.9998 13.9235C12.4906 13.9235 12.0762 13.5094 12.0762 13.0001ZM17.9179 7.29091L13.9924 11.2164C13.8569 11.1405 13.7117 11.081 13.5594 11.0372V5.4854C13.6506 5.38683 13.7173 5.26543 13.7466 5.12938C15.3673 5.28182 16.8475 5.92496 18.036 6.90906C17.9616 7.02539 17.923 7.15734 17.9179 7.29065L17.9179 7.29091ZM12.4405 5.48544V11.0373C12.2882 11.0806 12.143 11.1405 12.0075 11.2165L8.08216 7.29095C8.07709 7.15783 8.03844 7.02569 7.96407 6.90937C9.15235 5.92506 10.6326 5.28234 12.2535 5.12969C12.2829 5.26554 12.3491 5.38713 12.4405 5.48551L12.4405 5.48544ZM6.90908 7.96406C7.02541 8.03843 7.15756 8.07707 7.29067 8.08215L11.2161 12.0075C11.1401 12.1432 11.0804 12.2884 11.0369 12.4406H5.485C5.38643 12.3495 5.26503 12.2827 5.12879 12.2535C5.28162 10.6326 5.92437 9.15254 6.90888 7.96407L6.90908 7.96406ZM5.48501 13.5599H11.0369C11.0802 13.7121 11.1401 13.8573 11.2161 13.9928L7.29088 17.9183C7.15776 17.9234 7.02562 17.962 6.90929 18.0364C5.92499 16.8481 5.28226 15.3679 5.12961 13.747C5.26526 13.7178 5.38686 13.6512 5.48523 13.5598L5.48501 13.5599ZM8.08197 18.7095L12.0074 14.7841C12.1428 14.8601 12.288 14.9196 12.4403 14.9633V20.5152C12.3491 20.6137 12.2828 20.7351 12.2533 20.8712C10.6326 20.7187 9.15236 20.0756 7.96389 19.0915C8.03845 18.9748 8.0767 18.8428 8.08198 18.7095L8.08197 18.7095ZM13.5594 20.5146V14.9627C13.7116 14.9194 13.8568 14.8595 13.9925 14.7835L17.9179 18.7089C17.923 18.842 17.9616 18.9742 18.036 19.0905C16.8477 20.0748 15.3674 20.7175 13.7466 20.8702C13.7173 20.7347 13.6507 20.6131 13.5594 20.5143L13.5594 20.5146ZM19.0908 18.0363C18.9744 17.9619 18.8423 17.9233 18.7092 17.9182L14.7838 13.9927C14.8597 13.8572 14.9193 13.712 14.963 13.5598H20.5148C20.6134 13.6509 20.7348 13.7173 20.8709 13.7467C20.7178 15.3677 20.0751 16.8478 19.0908 18.0363L19.0908 18.0363Z" fill="white"/>
</svg>
