<?xml version="1.0" encoding="utf-8"?><svg xmlns="http://www.w3.org/2000/svg" xmlns:xlink="http://www.w3.org/1999/xlink"><symbol viewBox="0 0 6 11" id="arr-right" xmlns="http://www.w3.org/2000/svg"><path d="M.67 0L0 .739 4.562 5.25 0 9.761l.67.739L6 5.25.67 0z"/></symbol><symbol viewBox="0 0 25 25" id="close" xmlns="http://www.w3.org/2000/svg"><path d="M23.649 0L12.5 11.149 1.351 0 0 1.351 11.149 12.5 0 23.649 1.351 25 12.5 13.851 23.649 25 25 23.649 13.851 12.5 25 1.351 23.649 0z"/></symbol><symbol viewBox="0 0 25 44" id="left" xmlns="http://www.w3.org/2000/svg"><path d="M22.21 0L25 3.069 5.992 21.802 25 40.536l-2.79 3.069L0 21.802 22.21 0z"/></symbol><symbol viewBox="0 0 26 14" id="nav_0" xmlns="http://www.w3.org/2000/svg"><path d="M25.499 8.401a.5.5 0 01-.438-.256c-1.597-2.853-4.573-4.276-6.788-4.967a19.55 19.55 0 00-4.289-.816l-2.953 4.112a.5.5 0 01-.406.208h-4.14a.5.5 0 01-.406-.208L4.315 4.019h-2.84l2.58 3.59a.5.5 0 01-.813.584L.094 3.812A.5.5 0 01.5 3.02h4.072a.5.5 0 01.406.208l1.764 2.454h3.626l2.965-4.125a.5.5 0 01.42-.207c.09.002 2.224.07 4.793.867 1.517.47 2.869 1.1 4.02 1.87 1.453.972 2.587 2.174 3.37 3.57a.5.5 0 01-.437.745z"/><path d="M18.248 5.375a.49.49 0 01-.151-.024 18.126 18.126 0 00-3.418-.713.5.5 0 11.109-.994c1.225.135 2.434.387 3.61.754a.5.5 0 01-.15.977zm-4.508 8.048a.5.5 0 01-.012-1c.026 0 2.673-.073 5.509-.96 2.737-.855 4.704-2.149 5.848-3.842a.5.5 0 11.828.56c-1.273 1.887-3.42 3.312-6.378 4.237-2.975.93-5.67 1.002-5.785 1.005h-.01z"/><path d="M13.739 13.423h-9.9a.5.5 0 01-.44-.263L.685 8.14a.5.5 0 01.44-.738h24.374a.5.5 0 010 1H1.963l2.174 4.021h9.602a.5.5 0 110 1zm5.647-.984a.5.5 0 110-1 .5.5 0 010 1zm-5.977-9.631a.5.5 0 01-.415-.219l-1.06-1.57H8.497a.5.5 0 110-1H12.2a.5.5 0 01.414.219l1.21 1.79a.5.5 0 01-.414.781z"/><path d="M12.122 4.599a.5.5 0 01-.423-.233L9.431.786a.5.5 0 11.844-.535l2.268 3.58a.5.5 0 01-.421.768z"/></symbol><symbol viewBox="0 0 28 16" id="nav_1" xmlns="http://www.w3.org/2000/svg"><path d="M19.8 6.7c-1.2-.4-2.4-.6-3.6-.8-.1 0-.3 0-.4.1-.1.1-.2.2-.2.3 0 .1 0 .3.1.4.1.1.2.2.3.2 1.2.2 2.4.4 3.5.8h.2c.2 0 .5-.2.5-.4 0-.3-.2-.5-.4-.6z"/><path d="M27.4 10.1V10c-.9-1.5-2-2.7-3.4-3.6-1.2-.8-2.5-1.4-4-1.9-2.6-.8-4.7-.9-4.8-.9-.2 0-.3.1-.4.2l-4.2 5.9H5.8l-.8-7c0-.1-.1-.2-.2-.3 0-.1-.2-.1-.3-.1l-2.1.2c-.2 0-.4.2-.4.5v.3c0 .2.1.4.1.5h-.5L1.2.4C1.2.2 1 0 .7 0 .5.2.4.4.4.6L.8 4H.4c-.2 0-.4.2-.4.5 0 .2.2.4.4.4h.4l.4 3.4c0 .2.2.4.4.4s.4-.2.4-.5l-.3-3.4.5-.1c.4 2.8.3 4.2.2 5-.1 0-.3.1-.3.2-.1.2-.1.4 0 .5l2.7 5c.1.2.3.3.4.3h9.9c.1 0 2.8-.1 5.8-1s5.1-2.4 6.4-4.2c.1-.3.1-.3.1-.4 0 .1 0 .1 0 0zm-12-5.4c1.5.1 2.9.4 4.3.8 2 .6 4.6 1.9 6.3 4.2H11.8l3.6-5zM2.9 3.4l1.3-.1.7 6.5H3.3c.2-1.2.1-3.1-.4-6.4zm17.7 10.4c-2.7.9-5.3 1-5.5 1H5.5l-2.1-4.1h22.5c-1.2 1.3-3 2.3-5.3 3.1z"/></symbol><symbol viewBox="0 0 26 18" id="nav_10" xmlns="http://www.w3.org/2000/svg"><path d="M2.537 0C1.142 0 0 1.158 0 2.571v12.857C0 16.843 1.142 18 2.537 18h20.926C24.858 18 26 16.842 26 15.428V2.572C26 1.158 24.858 0 23.463 0H2.537zm0 1.286h20.926c.183 0 .35.043.506.11l-10.177 9.21c-.48.436-1.083.436-1.565 0L2.031 1.397a1.26 1.26 0 01.505-.11zM1.278 2.44l7.293 6.59-7.164 6.98a1.345 1.345 0 01-.138-.582V2.571c0-.045.005-.087.01-.13zm23.444 0c.004.043.01.085.01.13v12.857c0 .21-.055.41-.14.583l-7.143-6.99 7.273-6.58zm-8.224 7.443l6.995 6.83H2.506l7.016-6.82 1.862 1.678c.928.839 2.323.84 3.25 0l1.863-1.687v-.001z"/></symbol><symbol viewBox="0 0 26 12" id="nav_2" xmlns="http://www.w3.org/2000/svg"><path d="M20.232 11.852h3.086A2.684 2.684 0 0026 9.17V3.01A2.683 2.683 0 0023.318.328H8.605A2.683 2.683 0 005.923 3.01v3.11h-.622L3.302 1.083A1.725 1.725 0 002.01.026a1.704 1.704 0 00-1.577.55 1.723 1.723 0 00-.362 1.63l1.48 4.935a2.499 2.499 0 00.338 3.328 2.456 2.456 0 001.673.64H6.75c.495.477 1.16.737 1.842.737h10.57m5.78-8.83V6.12h-9.374a4.126 4.126 0 01-3.865-2.694l-.743-2.035h12.357c.43 0 .846.17 1.148.477.308.302.477.713.477 1.148zM1.188 1.319a.647.647 0 01.61-.26c.236.03.435.187.52.404L4.16 6.114h-.592c-.393 0-.785.097-1.136.272L1.085 1.892a.636.636 0 01.103-.573zm.942 7.296A1.445 1.445 0 013.574 7.17h2.355v2c0 .301.049.597.151.881H3.574A1.445 1.445 0 012.13 8.615zm4.85.555V3.01a1.633 1.633 0 011.625-1.625h1.232l.882 2.398a5.224 5.224 0 001.897 2.458c.87.604 1.902.93 2.96.936h9.373v2c0 .428-.17.845-.477 1.147a1.633 1.633 0 01-1.148.477H8.605c-.429 0-.845-.169-1.147-.477A1.622 1.622 0 016.98 9.17z"/></symbol><symbol viewBox="0 0 26 17" id="nav_3" xmlns="http://www.w3.org/2000/svg"><path d="M24.227 0H1.773C1.303 0 .852.19.519.53.187.87 0 1.33 0 1.81v13.38c0 .48.187.94.52 1.28.332.34.783.53 1.253.53h22.454c.47 0 .921-.19 1.254-.53.332-.34.519-.8.519-1.28V1.81c0-.48-.187-.94-.52-1.28A1.754 1.754 0 0024.228 0zm0 15.793h-7.09V9.651h-1.183v6.142H1.774a.597.597 0 01-.59-.603V6.635h8.224V5.43H1.182V1.81c0-.332.265-.602.59-.602h14.182v1.206h1.182V1.207h7.091c.157 0 .307.063.418.176a.61.61 0 01.173.427v3.619h-1.182v1.206h1.182v8.555a.61.61 0 01-.173.427.585.585 0 01-.418.176zM20.02 3.5l-2.883.603V3.016h-1.183V4.09l-2.883-.603a2.49 2.49 0 00-1.994.46 2.594 2.594 0 00-1.009 1.816c-.07.723.16 1.443.636 1.983a2.506 2.506 0 002.367.808l2.883-.604v1.098h1.182V7.974l2.884.604c.166.03.334.047.502.048a2.508 2.508 0 001.865-.856c.476-.54.707-1.26.636-1.983a2.594 2.594 0 00-1.009-1.815 2.49 2.49 0 00-1.994-.461v-.012zm-7.18 3.884c-.397.08-.81-.026-1.122-.289a1.388 1.388 0 01-.491-1.062c0-.41.18-.8.49-1.061.242-.203.545-.314.858-.314.088-.006.177-.006.266 0l3.114.664v1.423l-3.114.64zm8.533-.29a1.325 1.325 0 01-1.123.29l-3.114-.64V5.322l3.114-.64c.398-.08.81.026 1.123.29.31.26.49.65.49 1.061 0 .411-.18.8-.49 1.062z"/></symbol><symbol viewBox="0 0 26 15" id="nav_4" xmlns="http://www.w3.org/2000/svg"><path fill-rule="evenodd" clip-rule="evenodd" d="M24.342 11.129h1.185c.261 0 .473.217.473.484a.478.478 0 01-.473.484h-5.72c.031.156.048.318.048.484 0 1.336-1.059 2.419-2.364 2.419s-2.364-1.083-2.364-2.42c0-.165.016-.327.047-.483H3.31a.467.467 0 01-.334-.142l-1.068-1.31H.473A.478.478 0 010 10.161c0-.267.212-.484.473-.484h1.63c.125 0 .033.051.122.142l1.28 1.31h4.21L1.58 5.689c-.33-.294-.128-.85.31-.85h5.017L11.973.126A.466.466 0 0112.291 0H20.8c.179 0 .343.104.423.267l2.233 4.572h2.071c.261 0 .473.217.473.484 0 2.206-.467 3.928-1.254 5.216-.135.22-.27.417-.404.59zm-1.943-6.29L20.508.968h-8.034l-4.16 3.87h14.085zm-13.241 6.29H15.6a2.342 2.342 0 011.89-.968c.774 0 1.46.38 1.892.968h3.633c.052-.041.118-.098.195-.172.248-.237.498-.544.735-.931.634-1.04 1.04-2.428 1.101-4.22H3.158l6 5.323zm8.333 2.903c.783 0 1.418-.65 1.418-1.451 0-.802-.635-1.452-1.418-1.452-.784 0-1.419.65-1.419 1.452 0 .801.635 1.451 1.419 1.451z"/></symbol><symbol viewBox="0 0 26 26" id="nav_5" xmlns="http://www.w3.org/2000/svg"><path d="M25.44 12.44h-3.433a8.987 8.987 0 00-2.245-5.41l2.43-2.43a.56.56 0 10-.79-.792l-2.432 2.43a8.988 8.988 0 00-5.41-2.245V.56a.56.56 0 00-1.12 0v3.433a8.988 8.988 0 00-5.41 2.245l-2.431-2.43a.56.56 0 10-.792.79L6.238 7.03a8.989 8.989 0 00-2.245 5.41H.56a.56.56 0 000 1.12h3.433a8.988 8.988 0 002.245 5.41l-2.43 2.431a.56.56 0 10.79.792l2.432-2.431a8.986 8.986 0 005.41 2.245v3.433a.56.56 0 001.12 0v-3.433a8.986 8.986 0 005.41-2.245l2.43 2.43a.556.556 0 00.792 0 .56.56 0 000-.79l-2.43-2.432a8.989 8.989 0 002.245-5.41h3.433a.56.56 0 100-1.12zm-10.477 0a2.015 2.015 0 00-.18-.432l3.926-3.926a.76.76 0 00.382-.118 7.87 7.87 0 011.78 4.29.763.763 0 00-.357.187h-5.551zm-2.887.56a.925.925 0 011.847 0 .925.925 0 01-1.847 0zm5.842-5.71l-3.926 3.926a2.035 2.035 0 00-.433-.179V5.485a.76.76 0 00.188-.356 7.88 7.88 0 014.289 1.78.76.76 0 00-.118.382zM12.44 5.486v5.552a2.005 2.005 0 00-.434.18L8.082 7.29a.76.76 0 00-.118-.382 7.871 7.871 0 014.29-1.78.75.75 0 00.187.357zm-5.532 2.48a.76.76 0 00.382.117l3.925 3.925a2.047 2.047 0 00-.18.434H5.486a.76.76 0 00-.356-.188 7.872 7.872 0 011.78-4.289zM5.485 13.56h5.552c.043.152.103.297.18.433L7.29 17.918a.76.76 0 00-.382.118 7.871 7.871 0 01-1.78-4.289.757.757 0 00.356-.187zm2.597 5.15l3.925-3.926c.136.076.281.136.433.18v5.551a.761.761 0 00-.187.356 7.873 7.873 0 01-4.29-1.78.763.763 0 00.119-.382zm5.477 1.805v-5.552c.153-.044.298-.103.434-.18l3.925 3.926a.76.76 0 00.118.381 7.872 7.872 0 01-4.29 1.78.763.763 0 00-.187-.356zm5.532-2.479a.761.761 0 00-.382-.118l-3.925-3.925c.076-.136.135-.281.179-.433h5.552c.098.09.22.157.356.187a7.876 7.876 0 01-1.78 4.29z"/></symbol><symbol viewBox="0 0 26 15" id="nav_6" xmlns="http://www.w3.org/2000/svg"><path d="M24.703 10.565h.43c.479 0 .867.478.867.867a.867.867 0 01-.867.866h-.43c-.479 0-.867-.478-.867-.866 0-.479.388-.867.867-.867zm-5.201 0H.867a.866.866 0 100 1.733h18.635a.866.866 0 01.867.867v.165a.867.867 0 001.733 0V9.534a.867.867 0 00-1.733 0v.164a.867.867 0 01-.867.867zm-3.466-8.667h9.097c.479 0 .867.479.867.867a.867.867 0 01-.867.867h-9.097c-.478 0-.867-.479-.867-.867 0-.479.388-.867.867-.867zM12.57 5.53a.867.867 0 00.866-.867V.867a.866.866 0 10-1.733 0v.164a.867.867 0 01-.867.867H.867a.866.866 0 100 1.733h9.97a.867.867 0 01.866.867v.165a.867.867 0 00.867.866z"/></symbol><symbol viewBox="0 0 26 25" id="nav_7" xmlns="http://www.w3.org/2000/svg"><path d="M12.267 21.613l.287.234c.1.082.244.082.344 0l.286-.234c.31-.253 7.585-6.28 7.585-13.675a8.044 8.044 0 00-16.087 0c0 7.394 7.276 13.422 7.585 13.675zm.459-20.164a6.55 6.55 0 016.594 6.488c0 5.48-4.67 10.354-6.41 11.98a.268.268 0 01-.368 0c-1.74-1.626-6.41-6.5-6.41-11.98a6.549 6.549 0 016.594-6.488z"/><path d="M16.712 7.938a3.987 3.987 0 10-7.973 0 3.987 3.987 0 007.973 0zm-6.523 0a2.536 2.536 0 115.072-.001 2.536 2.536 0 01-5.072 0zm14.796 15.035l-23.97.004c-.56 0-1.015.375-1.015.837 0 .463.455.838 1.016.838l23.969-.004c.56 0 1.015-.375 1.015-.838 0-.462-.455-.837-1.015-.837z"/></symbol><symbol viewBox="0 0 28 26" id="nav_8" xmlns="http://www.w3.org/2000/svg"><path d="M17.575 9.506a.535.535 0 00.577-.25l.697-1.16c-3.243-1.19-6.52-1.18-9.76.023l.499 1.077 7.987.31zm0 0c-2.37-.545-4.855-.547-7.385-.007m7.385.007L10.19 9.5m0 0a.538.538 0 01-.602-.302l.602.302zm.228 1.07a1.628 1.628 0 01-1.823-.912l-.458-.988c-.347.238-.576.66-.576 1.141 0 .637.396 1.174.95 1.316l-.024.097 1.931-.654zm0 0c2.374-.507 4.7-.505 6.91.004a1.63 1.63 0 001.761-.754l.712-1.183c.38.229.636.667.636 1.174 0 .635-.396 1.17-.95 1.313a.547.547 0 00-.403.428c-.246 1.3-.833 2.447-1.696 3.317l-6.97-4.299zm13.637 10.053h-.001l-5.73-2.985v-2.17c.862-.93 1.47-2.094 1.77-3.399.864-.372 1.438-1.256 1.438-2.258a2.44 2.44 0 00-1.33-2.197v-2.16A4.557 4.557 0 0015.648.9H12.35a4.557 4.557 0 00-4.552 4.552v2.16c-.792.394-1.33 1.232-1.33 2.198 0 1.004.573 1.889 1.436 2.261a7.504 7.504 0 001.77 3.392v2.179l-5.631 3h-.001A5.76 5.76 0 00.9 25.783v.1h1.094v-.1c0-1.764.976-3.36 2.554-4.171h.001l5.654-3.012 3.34 4.971a.547.547 0 00.909 0l3.347-4.975 5.743 2.992a4.683 4.683 0 012.464 4.126v.17H27.1v-.17a5.778 5.778 0 00-3.045-5.092zM8.893 5.452a3.462 3.462 0 013.457-3.458h3.3a3.462 3.462 0 013.457 3.458v1.57c-3.392-1.216-6.822-1.216-10.214 0v-1.57zm1.875 12.03v-1.067a5.714 5.714 0 003.228 1.016 5.733 5.733 0 003.233-1.015v1.065l-3.232 4.804-3.229-4.804z"/></symbol><symbol viewBox="0 0 26 20" id="nav_9" xmlns="http://www.w3.org/2000/svg"><path d="M19.077 0a.588.588 0 00-.258.086L13.71 3.069a.555.555 0 00-.055.028.601.601 0 00-.166.786l1.438 2.519 1.65 5.843c.041.137.13.254.25.33l8.25 5.512c.186.123.425.13.618.018a.599.599 0 00.295-.549l-.59-9.99a.6.6 0 00-.166-.378L21.06 2.822 19.62.304A.589.589 0 0019.078 0zm-.185 1.412l.886 1.552-4.084 2.387-.886-1.553 4.085-2.386zm1.586 2.519l3.752 3.93.443 7.253-3.18-5.568a.585.585 0 00-.867-.19.601.601 0 00-.157.786l3.18 5.568-5.992-4.005-1.484-5.256 4.305-2.518zM.565 18.787a.584.584 0 00-.41.197.616.616 0 00.039.859c.116.108.27.164.426.156H25.4c.159.003.31-.06.423-.174a.614.614 0 000-.863.582.582 0 00-.423-.175H.566z"/></symbol><symbol viewBox="0 0 8 14" id="next" xmlns="http://www.w3.org/2000/svg"><path d="M.893 0L0 .985 6.083 7 0 13.015.893 14 8 7 .893 0z"/></symbol><symbol viewBox="0 0 8 14" id="prev" xmlns="http://www.w3.org/2000/svg"><path d="M7.107 0L8 .985 1.917 7 8 13.015 7.107 14 0 7l7.107-7z"/></symbol><symbol viewBox="0 0 25 44" id="right" xmlns="http://www.w3.org/2000/svg"><path d="M2.79 0L0 3.069l19.008 18.733L0 40.536l2.79 3.069L25 21.802 2.79 0z"/></symbol><symbol viewBox="0 0 25 25" id="search" xmlns="http://www.w3.org/2000/svg"><path d="M22.27 2.751C20.494.976 18.156 0 15.67 0a9.34 9.34 0 00-6.629 2.751C7.265 4.527 6.29 6.864 6.29 9.35c0 2.248.8 4.379 2.25 6.065L.221 23.757c-.296.296-.296.77 0 1.036A.713.713 0 00.755 25c.207 0 .384-.06.532-.207l8.316-8.314a9.266 9.266 0 006.067 2.249 9.222 9.222 0 006.6-2.752c3.64-3.639 3.64-9.586 0-13.225zm-1.036 12.19a7.838 7.838 0 01-5.564 2.307 7.838 7.838 0 01-5.564-2.307 7.834 7.834 0 01-2.308-5.562c0-2.101.829-4.083 2.308-5.563A7.839 7.839 0 0115.67 1.51a7.84 7.84 0 015.564 2.307c3.048 3.048 3.048 8.048 0 11.125z"/></symbol><symbol viewBox="0 0 23 22" id="tg" xmlns="http://www.w3.org/2000/svg"><path d="M22.33 2.452L18.258 19.2a1.264 1.264 0 01-1.806.82L11.3 17.368l-2.436 3.976c-.663 1.084-2.34.614-2.34-.653v-4.43c0-.343.143-.67.39-.909l10.042-9.56c-.008-.12-.136-.224-.264-.136L4.71 13.973.684 11.9c-.943-.486-.903-1.848.071-2.27L20.605 1c.95-.414 1.973.439 1.726 1.45z"/></symbol><symbol viewBox="0 0 23 23" id="wa" xmlns="http://www.w3.org/2000/svg"><path fill-rule="evenodd" clip-rule="evenodd" d="M11.816 0C5.634 0 .63 5 .63 11.184c0 2.333.712 4.49 1.975 6.344a.56.56 0 01.07.48L1.54 21.81l3.722-1.285a.559.559 0 01.481.061 11.118 11.118 0 006.072 1.783C18 22.369 23 17.369 23 11.184 23 5 18 0 11.815 0zM7.237 4.876L9.273 8.24l-.848.839a.559.559 0 00-.087.672c1.294 2.24 2.826 3.983 4.972 4.929a.56.56 0 00.62-.114l.9-.9 3.286 2.053c-.364.82-.838 1.307-1.38 1.59-.63.33-1.397.392-2.273.21-1.752-.363-3.867-1.74-5.592-3.504-1.724-1.763-3.059-3.908-3.399-5.653-.17-.873-.095-1.624.227-2.22.278-.512.749-.951 1.538-1.266z"/></symbol></svg>